{
  "accessors": [
    {
      "bufferView": 2,
      "componentType": 5126,
      "count": 1038,
      "max": [
        2.6816928386688232,
        8.880109786987305,
        1.000000238418579
      ],
      "min": [
        -12.14621353149414,
        -0.846786379814148,
        -1.0
      ],
      "type": "VEC3"
    },
    {
      "bufferView": 2,
      "byteOffset": 12456,
      "componentType": 5126,
      "count": 1038,
      "max": [
        0.9976839423179626,
        0.99498450756073,
        1.0
      ],
      "min": [
        -0.9946398735046387,
        -0.9999920129776001,
        -1.0
      ],
      "type": "VEC3"
    },
    {
      "bufferView": 1,
      "componentType": 5126,
      "count": 1038,
      "max": [
        0.875,
        1.0
      ],
      "min": [
        0.125,
        0.0
      ],
      "type": "VEC2"
    },
    {
      "bufferView": 0,
      "componentType": 5125,
      "count": 1644,
      "type": "SCALAR"
    },
    {
      "bufferView": 2,
      "byteOffset": 24912,
      "componentType": 5126,
      "count": 904,
      "max": [
        1.9506738185882568,
        1.1221377849578857,
        1.000000238418579
      ],
      "min": [
        -11.196112632751465,
        -0.9528196454048157,
        -1.0285245180130005
      ],
      "type": "VEC3"
    },
    {
      "bufferView": 2,
      "byteOffset": 35760,
      "componentType": 5126,
      "count": 904,
      "max": [
        1.0,
        1.0,
        1.0
      ],
      "min": [
        -1.0,
        -1.0,
        -1.0
      ],
      "type": "VEC3"
    },
    {
      "bufferView": 1,
      "byteOffset": 8304,
      "componentType": 5126,
      "count": 904,
      "max": [
        0.8750001192092896,
        1.0
      ],
      "min": [
        0.125,
        0.0
      ],
      "type": "VEC2"
    },
    {
      "bufferView": 0,
      "byteOffset": 6576,
      "componentType": 5125,
      "count": 1815,
      "type": "SCALAR"
    },
    {
      "bufferView": 2,
      "byteOffset": 46608,
      "componentType": 5126,
      "count": 42,
      "max": [
        -11.167572021484375,
        0.4851169288158417,
        0.49857619404792786
      ],
      "min": [
        -11.322983741760254,
        -0.39840006828308105,
        -0.49857619404792786
      ],
      "type": "VEC3"
    },
    {
      "bufferView": 2,
      "byteOffset": 47112,
      "componentType": 5126,
      "count": 42,
      "max": [
        6.445757350093118e-08,
        0.9387718439102173,
        0.9058979749679565
      ],
      "min": [
        -2.1232112601410336e-07,
        -0.9387724995613098,
        -0.9058980941772461
      ],
      "type": "VEC3"
    },
    {
      "bufferView": 1,
      "byteOffset": 15536,
      "componentType": 5126,
      "count": 42,
      "max": [
        0.07444202899932861,
        0.9304342269897461
      ],
      "min": [
        0.06369966268539429,
        0.8442913293838501
      ],
      "type": "VEC2"
    },
    {
      "bufferView": 0,
      "byteOffset": 13836,
      "componentType": 5125,
      "count": 78,
      "type": "SCALAR"
    },
    {
      "bufferView": 2,
      "byteOffset": 47616,
      "componentType": 5126,
      "count": 759,
      "max": [
        0.7149832844734192,
        2.038356304168701,
        0.5530459880828857
      ],
      "min": [
        -0.96250981092453,
        -11.256510734558105,
        -0.5530470013618469
      ],
      "type": "VEC3"
    },
    {
      "bufferView": 2,
      "byteOffset": 56724,
      "componentType": 5126,
      "count": 759,
      "max": [
        1.0,
        0.994924783706665,
        1.0
      ],
      "min": [
        -1.0,
        -0.8899232745170593,
        -1.0
      ],
      "type": "VEC3"
    },
    {
      "bufferView": 1,
      "byteOffset": 15872,
      "componentType": 5126,
      "count": 759,
      "max": [
        1.0,
        1.0
      ],
      "min": [
        0.0,
        0.0
      ],
      "type": "VEC2"
    },
    {
      "bufferView": 0,
      "byteOffset": 14148,
      "componentType": 5125,
      "count": 1476,
      "type": "SCALAR"
    },
    {
      "bufferView": 2,
      "byteOffset": 65832,
      "componentType": 5126,
      "count": 112,
      "max": [
        6.657097339630127,
        8.98491382598877,
        2.920945644378662
      ],
      "min": [
        -5.854493141174316,
        -11.778003692626953,
        -2.920947551727295
      ],
      "type": "VEC3"
    },
    {
      "bufferView": 2,
      "byteOffset": 67176,
      "componentType": 5126,
      "count": 112,
      "max": [
        0.9725048542022705,
        0.9829158186912537,
        0.9974382519721985
      ],
      "min": [
        -0.9710856080055237,
        -0.9913292527198792,
        -0.9974382519721985
      ],
      "type": "VEC3"
    },
    {
      "bufferView": 1,
      "byteOffset": 21944,
      "componentType": 5126,
      "count": 112,
      "max": [
        0.875,
        1.0
      ],
      "min": [
        0.125,
        0.0
      ],
      "type": "VEC2"
    },
    {
      "bufferView": 0,
      "byteOffset": 20052,
      "componentType": 5125,
      "count": 168,
      "type": "SCALAR"
    },
    {
      "bufferView": 2,
      "byteOffset": 68520,
      "componentType": 5126,
      "count": 257,
      "max": [
        3.8190014362335205,
        2.266477346420288,
        1.0000001192092896
      ],
      "min": [
        -1.0,
        -2.581775665283203,
        -1.3652405738830566
      ],
      "type": "VEC3"
    },
    {
      "bufferView": 2,
      "byteOffset": 71604,
      "componentType": 5126,
      "count": 257,
      "max": [
        0.9041031002998352,
        0.9986666440963745,
        1.0
      ],
      "min": [
        -0.9669623374938965,
        -0.9972704648971558,
        -1.0
      ],
      "type": "VEC3"
    },
    {
      "bufferView": 1,
      "byteOffset": 22840,
      "componentType": 5126,
      "count": 257,
      "max": [
        0.875,
        1.0
      ],
      "min": [
        0.125,
        0.0
      ],
      "type": "VEC2"
    },
    {
      "bufferView": 0,
      "byteOffset": 20724,
      "componentType": 5125,
      "count": 414,
      "type": "SCALAR"
    },
    {
      "bufferView": 2,
      "byteOffset": 74688,
      "componentType": 5126,
      "count": 140,
      "max": [
        1.0000014305114746,
        -1.715393304824829,
        1.0
      ],
      "min": [
        -0.9999998807907104,
        -19.112497329711914,
        -1.0
      ],
      "type": "VEC3"
    },
    {
      "bufferView": 2,
      "byteOffset": 76368,
      "componentType": 5126,
      "count": 140,
      "max": [
        0.9238796234130859,
        1.0,
        0.9238795638084412
      ],
      "min": [
        -0.9238796234130859,
        -1.0,
        -0.9238796234130859
      ],
      "type": "VEC3"
    },
    {
      "bufferView": 1,
      "byteOffset": 24896,
      "componentType": 5126,
      "count": 140,
      "max": [
        0.6866375803947449,
        0.9399042129516602
      ],
      "min": [
        0.06066519394516945,
        0.8384318351745605
      ],
      "type": "VEC2"
    },
    {
      "bufferView": 0,
      "byteOffset": 22380,
      "componentType": 5125,
      "count": 210,
      "type": "SCALAR"
    },
    {
      "bufferView": 2,
      "byteOffset": 78048,
      "componentType": 5126,
      "count": 32,
      "max": [
        0.14736783504486084,
        -0.29800722002983093,
        0.14748120307922363
      ],
      "min": [
        -0.14874769747257233,
        -3.3262197971343994,
        -0.14748120307922363
      ],
      "type": "VEC3"
    },
    {
      "bufferView": 2,
      "byteOffset": 78432,
      "componentType": 5126,
      "count": 32,
      "max": [
        0.9238793849945068,
        0.00035181030398234725,
        0.9238794445991516
      ],
      "min": [
        -0.9238794445991516,
        -0.0003518102748785168,
        -0.9238795638084412
      ],
      "type": "VEC3"
    },
    {
      "bufferView": 1,
      "byteOffset": 26016,
      "componentType": 5126,
      "count": 32,
      "max": [
        0.6908054351806641,
        0.9304342269897461
      ],
      "min": [
        0.06369966268539429,
        0.8442913293838501
      ],
      "type": "VEC2"
    },
    {
      "bufferView": 0,
      "byteOffset": 23220,
      "componentType": 5125,
      "count": 48,
      "type": "SCALAR"
    },
    {
      "bufferView": 2,
      "byteOffset": 78816,
      "componentType": 5126,
      "count": 204,
      "max": [
        -1.9225406646728516,
        8.722227096557617,
        5.696783065795898
      ],
      "min": [
        -3.339755058288574,
        -12.666238784790039,
        -5.696783065795898
      ],
      "type": "VEC3"
    },
    {
      "bufferView": 2,
      "byteOffset": 81264,
      "componentType": 5126,
      "count": 204,
      "max": [
        1.0,
        0.9913060665130615,
        0.9998580813407898
      ],
      "min": [
        -0.9999306201934814,
        -0.9392969012260437,
        -0.9998580813407898
      ],
      "type": "VEC3"
    },
    {
      "bufferView": 1,
      "byteOffset": 26272,
      "componentType": 5126,
      "count": 204,
      "max": [
        0.875,
        1.0
      ],
      "min": [
        0.125,
        0.0
      ],
      "type": "VEC2"
    },
    {
      "bufferView": 0,
      "byteOffset": 23412,
      "componentType": 5125,
      "count": 357,
      "type": "SCALAR"
    },
    {
      "bufferView": 2,
      "byteOffset": 83712,
      "componentType": 5126,
      "count": 44,
      "max": [
        -1.9225406646728516,
        5.631616592407227,
        4.023657321929932
      ],
      "min": [
        -3.339755058288574,
        -2.415698528289795,
        -4.023657321929932
      ],
      "type": "VEC3"
    },
    {
      "bufferView": 2,
      "byteOffset": 84240,
      "componentType": 5126,
      "count": 44,
      "max": [
        1.105338682805268e-07,
        0.9238794445991516,
        0.9238795042037964
      ],
      "min": [
        -2.2165033897181274e-07,
        -0.9238795638084412,
        -0.9238795638084412
      ],
      "type": "VEC3"
    },
    {
      "bufferView": 1,
      "byteOffset": 27904,
      "componentType": 5126,
      "count": 44,
      "max": [
        0.07588451355695724,
        0.9304342269897461
      ],
      "min": [
        0.06512562930583954,
        0.8442913293838501
      ],
      "type": "VEC2"
    },
    {
      "bufferView": 0,
      "byteOffset": 24840,
      "componentType": 5125,
      "count": 84,
      "type": "SCALAR"
    },
    {
      "bufferView": 2,
      "byteOffset": 84768,
      "componentType": 5126,
      "count": 48,
      "max": [
        1.0,
        1.0,
        1.0
      ],
      "min": [
        -1.0,
        -1.0,
        -1.0
      ],
      "type": "VEC3"
    },
    {
      "bufferView": 2,
      "byteOffset": 85344,
      "componentType": 5126,
      "count": 48,
      "max": [
        0.9238795638084412,
        1.0,
        0.9238795638084412
      ],
      "min": [
        -0.9238796234130859,
        -1.0,
        -0.9238795638084412
      ],
      "type": "VEC3"
    },
    {
      "bufferView": 1,
      "byteOffset": 28256,
      "componentType": 5126,
      "count": 48,
      "max": [
        1.0,
        1.0
      ],
      "min": [
        0.0,
        0.01000000536441803
      ],
      "type": "VEC2"
    },
    {
      "bufferView": 0,
      "byteOffset": 25176,
      "componentType": 5125,
      "count": 84,
      "type": "SCALAR"
    },
    {
      "bufferView": 2,
      "byteOffset": 85920,
      "componentType": 5126,
      "count": 56,
      "max": [
        1.6183607578277588,
        7.432340621948242,
        0.7988695502281189
      ],
      "min": [
        -1.9929580688476563,
        -1.3161044120788574,
        -0.798868715763092
      ],
      "type": "VEC3"
    },
    {
      "bufferView": 2,
      "byteOffset": 86592,
      "componentType": 5126,
      "count": 56,
      "max": [
        0.9970261454582214,
        0.9991010427474976,
        1.0
      ],
      "min": [
        -0.9977108836174011,
        -0.9934099912643433,
        -1.0
      ],
      "type": "VEC3"
    },
    {
      "bufferView": 1,
      "byteOffset": 28640,
      "componentType": 5126,
      "count": 56,
      "max": [
        0.875,
        1.0
      ],
      "min": [
        0.125,
        0.0
      ],
      "type": "VEC2"
    },
    {
      "bufferView": 0,
      "byteOffset": 25512,
      "componentType": 5125,
      "count": 84,
      "type": "SCALAR"
    }
  ],
  "asset": {
    "extras": {
      "author": "B4TU (https://sketchfab.com/B4TU)",
      "license": "SKETCHFAB Standard (https://sketchfab.com/licenses)",
      "source": "https://sketchfab.com/3d-models/m1911-tactical-3b5582fc8aab444cab205e22800de5d9",
      "title": "M1911 Tactical"
    },
    "generator": "Sketchfab-15.53.0",
    "version": "2.0"
  },
  "bufferViews": [
    {
      "buffer": 0,
      "byteLength": 25848,
      "name": "floatBufferViews",
      "target": 34963
    },
    {
      "buffer": 0,
      "byteLength": 29088,
      "byteOffset": 25848,
      "byteStride": 8,
      "name": "floatBufferViews",
      "target": 34962
    },
    {
      "buffer": 0,
      "byteLength": 87264,
      "byteOffset": 54936,
      "byteStride": 12,
      "name": "floatBufferViews",
      "target": 34962
    }
  ],
  "buffers": [
    {
      "byteLength": 142200,
      "uri": "scene.bin"
    }
  ],
  "materials": [
    {
      "doubleSided": true,
      "name": "material_0",
      "pbrMetallicRoughness": {
        "metallicFactor": 0.0,
        "roughnessFactor": 0.6
      }
    },
    {
      "doubleSided": true,
      "name": "Material.001",
      "pbrMetallicRoughness": {
        "baseColorFactor": [
          0.00894796,
          0.00970863,
          0.0110877,
          1.0
        ],
        "metallicFactor": 0.0,
        "roughnessFactor": 0.5
      }
    },
    {
      "doubleSided": true,
      "name": "Material.002",
      "pbrMetallicRoughness": {
        "baseColorFactor": [
          0.00516853,
          0.00551841,
          0.00637026,
          1.0
        ],
        "metallicFactor": 0.0,
        "roughnessFactor": 0.5
      }
    },
    {
      "doubleSided": true,
      "name": "Material.003",
      "pbrMetallicRoughness": {
        "baseColorFactor": [
          0.012983,
          0.0137021,
          0.0144438,
          1.0
        ],
        "metallicFactor": 0.0,
        "roughnessFactor": 0.5
      }
    },
    {
      "doubleSided": true,
      "name": "Material.004",
      "pbrMetallicRoughness": {
        "baseColorFactor": [
          0.0,
          0.0,
          0.0,
          1.0
        ],
        "metallicFactor": 0.0,
        "roughnessFactor": 0.5
      }
    },
    {
      "doubleSided": true,
      "name": "Material.008",
      "pbrMetallicRoughness": {
        "baseColorFactor": [
          0.0204404,
          0.0212174,
          0.0236508,
          1.0
        ],
        "metallicFactor": 0.0,
        "roughnessFactor": 0.5
      }
    },
    {
      "doubleSided": true,
      "name": "Material.009",
      "pbrMetallicRoughness": {
        "baseColorFactor": [
          0.0151298,
          0.015677,
          0.0173877,
          1.0
        ],
        "metallicFactor": 0.0,
        "roughnessFactor": 0.5
      }
    },
    {
      "doubleSided": true,
      "name": "Material.010",
      "pbrMetallicRoughness": {
        "baseColorFactor": [
          0.0163694,
          0.0169708,
          0.0188488,
          1.0
        ],
        "metallicFactor": 0.0,
        "roughnessFactor": 0.5
      }
    },
    {
      "doubleSided": true,
      "name": "Material.011",
      "pbrMetallicRoughness": {
        "baseColorFactor": [
          0.0250456,
          0.0260259,
          0.0290996,
          1.0
        ],
        "metallicFactor": 0.0,
        "roughnessFactor": 0.5
      }
    },
    {
      "doubleSided": true,
      "name": "Material.013",
      "pbrMetallicRoughness": {
        "baseColorFactor": [
          0.028426,
          0.0307135,
          0.0331048,
          1.0
        ],
        "metallicFactor": 0.0,
        "roughnessFactor": 0.5
      }
    }
  ],
  "meshes": [
    {
      "name": "Object_0",
      "primitives": [
        {
          "attributes": {
            "NORMAL": 1,
            "POSITION": 0,
            "TEXCOORD_0": 2
          },
          "indices": 3,
          "material": 1,
          "mode": 4
        }
      ]
    },
    {
      "name": "Object_1",
      "primitives": [
        {
          "attributes": {
            "NORMAL": 5,
            "POSITION": 4,
            "TEXCOORD_0": 6
          },
          "indices": 7,
          "material": 2,
          "mode": 4
        }
      ]
    },
    {
      "name": "Object_2",
      "primitives": [
        {
          "attributes": {
            "NORMAL": 9,
            "POSITION": 8,
            "TEXCOORD_0": 10
          },
          "indices": 11,
          "material": 0,
          "mode": 4
        }
      ]
    },
    {
      "name": "Object_3",
      "primitives": [
        {
          "attributes": {
            "NORMAL": 13,
            "POSITION": 12,
            "TEXCOORD_0": 14
          },
          "indices": 15,
          "material": 3,
          "mode": 4
        }
      ]
    },
    {
      "name": "Object_4",
      "primitives": [
        {
          "attributes": {
            "NORMAL": 17,
            "POSITION": 16,
            "TEXCOORD_0": 18
          },
          "indices": 19,
          "material": 4,
          "mode": 4
        }
      ]
    },
    {
      "name": "Object_5",
      "primitives": [
        {
          "attributes": {
            "NORMAL": 21,
            "POSITION": 20,
            "TEXCOORD_0": 22
          },
          "indices": 23,
          "material": 5,
          "mode": 4
        }
      ]
    },
    {
      "name": "Object_6",
      "primitives": [
        {
          "attributes": {
            "NORMAL": 25,
            "POSITION": 24,
            "TEXCOORD_0": 26
          },
          "indices": 27,
          "material": 6,
          "mode": 4
        }
      ]
    },
    {
      "name": "Object_7",
      "primitives": [
        {
          "attributes": {
            "NORMAL": 29,
            "POSITION": 28,
            "TEXCOORD_0": 30
          },
          "indices": 31,
          "material": 0,
          "mode": 4
        }
      ]
    },
    {
      "name": "Object_8",
      "primitives": [
        {
          "attributes": {
            "NORMAL": 33,
            "POSITION": 32,
            "TEXCOORD_0": 34
          },
          "indices": 35,
          "material": 7,
          "mode": 4
        }
      ]
    },
    {
      "name": "Object_9",
      "primitives": [
        {
          "attributes": {
            "NORMAL": 37,
            "POSITION": 36,
            "TEXCOORD_0": 38
          },
          "indices": 39,
          "material": 0,
          "mode": 4
        }
      ]
    },
    {
      "name": "Object_10",
      "primitives": [
        {
          "attributes": {
            "NORMAL": 41,
            "POSITION": 40,
            "TEXCOORD_0": 42
          },
          "indices": 43,
          "material": 8,
          "mode": 4
        }
      ]
    },
    {
      "name": "Object_11",
      "primitives": [
        {
          "attributes": {
            "NORMAL": 45,
            "POSITION": 44,
            "TEXCOORD_0": 46
          },
          "indices": 47,
          "material": 9,
          "mode": 4
        }
      ]
    }
  ],
  "nodes": [
    {
      "children": [
        1
      ],
      "matrix": [
        1.0,
        0.0,
        0.0,
        0.0,
        0.0,
        2.220446049250313e-16,
        -1.0,
        0.0,
        0.0,
        1.0,
        2.220446049250313e-16,
        0.0,
        0.0,
        0.0,
        0.0,
        1.0
      ],
      "name": "Sketchfab_model"
    },
    {
      "children": [
        2
      ],
      "name": "root"
    },
    {
      "children": [
        3,
        5,
        8,
        10,
        12,
        14,
        16,
        18,
        21,
        23
      ],
      "matrix": [
        1.0,
        0.0,
        0.0,
        0.0,
        0.0,
        2.220446049250313e-16,
        1.0,
        0.0,
        0.0,
        -1.0,
        2.220446049250313e-16,
        0.0,
        0.0,
        0.0,
        0.0,
        1.0
      ],
      "name": "GLTF_SceneRootNode"
    },
    {
      "children": [
        4
      ],
      "matrix": [
        0.3203505191828612,
        0.05063372985031751,
        0.0,
        0.0,
        -0.05063372985031751,
        0.3203505191828612,
        0.0,
        0.0,
        0.0,
        0.0,
        0.27883145213127136,
        0.0,
        1.8606024980545044,
        -1.1862963438034058,
        0.0,
        1.0
      ],
      "name": "Cube_0"
    },
    {
      "mesh": 0,
      "name": "Object_4"
    },
    {
      "children": [
        6,
        7
      ],
      "matrix": [
        0.33385029435157776,
        0.0,
        0.0,
        0.0,
        0.0,
        0.33385029435157776,
        0.0,
        0.0,
        0.0,
        0.0,
        0.2958047688007355,
        0.0,
        1.3175805807113647,
        1.1761471033096313,
        0.0,
        1.0
      ],
      "name": "Cube.001_1"
    },
    {
      "mesh": 1,
      "name": "Object_6"
    },
    {
      "mesh": 2,
      "name": "Object_7"
    },
    {
      "children": [
        9
      ],
      "matrix": [
        0.21461527596213864,
        -0.007600364564855289,
        -0.0,
        0.0,
        0.001997478944364807,
        0.05640380684575446,
        0.0,
        0.0,
        0.0,
        0.0,
        0.0667089894413948,
        0.0,
        0.4830790162086487,
        0.6497372388839722,
        0.0,
        1.0
      ],
      "name": "Cube.002_2"
    },
    {
      "mesh": 3,
      "name": "Object_9"
    },
    {
      "children": [
        11
      ],
      "matrix": [
        0.10890507698059082,
        0.0,
        0.0,
        0.0,
        0.0,
        0.10890507698059082,
        0.0,
        0.0,
        0.0,
        0.0,
        0.10890507698059082,
        0.0,
        1.4884891510009766,
        -0.21264129877090454,
        0.0,
        1.0
      ],
      "name": "Cube.003_3"
    },
    {
      "mesh": 4,
      "name": "Object_11"
    },
    {
      "children": [
        13
      ],
      "matrix": [
        0.08962136507034302,
        0.0,
        0.0,
        0.0,
        0.0,
        0.08962136507034302,
        0.0,
        0.0,
        0.0,
        0.0,
        0.08962136507034302,
        0.0,
        1.7260891199111938,
        1.186809778213501,
        0.0,
        1.0
      ],
      "name": "Cube.004_4"
    },
    {
      "mesh": 5,
      "name": "Object_13"
    },
    {
      "children": [
        15
      ],
      "matrix": [
        2.9287884725450195e-08,
        0.17372523248195398,
        0.0,
        0.0,
        -0.17372523248195398,
        2.9287884725450195e-08,
        0.0,
        0.0,
        0.0,
        0.0,
        0.17372523248195648,
        0.0,
        -2.7810561656951904,
        1.1968039274215698,
        0.0,
        1.0
      ],
      "name": "Circle_5"
    },
    {
      "mesh": 6,
      "name": "Object_15"
    },
    {
      "children": [
        17
      ],
      "matrix": [
        -0.00038083891585327656,
        0.9999999274808575,
        0.0,
        0.0,
        -0.9999999274808575,
        -0.00038083891585327656,
        0.0,
        0.0,
        0.0,
        0.0,
        1.0,
        0.0,
        -2.760551929473877,
        1.1906222105026245,
        0.0,
        1.0
      ],
      "name": "Circle.001_6"
    },
    {
      "mesh": 7,
      "name": "Object_17"
    },
    {
      "children": [
        19,
        20
      ],
      "matrix": [
        0.03665351867675781,
        0.0,
        0.0,
        0.0,
        0.0,
        0.03665351867675781,
        0.0,
        0.0,
        0.0,
        0.0,
        0.03665351867675781,
        0.0,
        -2.333292007446289,
        1.1316848993301392,
        0.0,
        1.0
      ],
      "name": "Cube.005_7"
    },
    {
      "mesh": 8,
      "name": "Object_19"
    },
    {
      "mesh": 9,
      "name": "Object_20"
    },
    {
      "children": [
        22
      ],
      "matrix": [
        0.0,
        -0.08710142225027084,
        -0.0,
        0.0,
        0.01839558035135269,
        0.0,
        0.0,
        0.0,
        0.0,
        0.0,
        0.08710142225027084,
        0.0,
        -2.4430928230285645,
        0.8558235764503479,
        0.0,
        1.0
      ],
      "name": "Cylinder_8"
    },
    {
      "mesh": 10,
      "name": "Object_22"
    },
    {
      "children": [
        24
      ],
      "matrix": [
        0.25352308693498876,
        0.05195809298373831,
        0.0,
        0.0,
        -0.05195809298373831,
        0.25352308693498876,
        0.0,
        0.0,
        0.0,
        0.0,
        0.25879257917404175,
        0.0,
        1.8100030422210693,
        -1.1975959539413452,
        0.0,
        1.0
      ],
      "name": "Mag_9"
    },
    {
      "mesh": 11,
      "name": "Object_24"
    }
  ],
  "scene": 0,
  "scenes": [
    {
      "name": "Sketchfab_Scene",
      "nodes": [
        0
      ]
    }
  ]
}
