{
  "accessors": [
    {
      "bufferView": 2,
      "componentType": 5126,
      "count": 479,
      "max": [
        1.4759520292282104,
        1.082584023475647,
        -0.28803500533103943
      ],
      "min": [
        0.16845500469207764,
        -0.22491399943828583,
        -0.6523759961128235
      ],
      "type": "VEC3"
    },
    {
      "bufferView": 2,
      "byteOffset": 5748,
      "componentType": 5126,
      "count": 479,
      "max": [
        1.0,
        1.0,
        1.0
      ],
      "min": [
        -1.0,
        -1.0,
        -1.0
      ],
      "type": "VEC3"
    },
    {
      "bufferView": 3,
      "componentType": 5126,
      "count": 479,
      "max": [
        0.999645471572876,
        0.9200971126556396,
        0.5255509614944458,
        -1.0
      ],
      "min": [
        -0.9200963973999023,
        -0.995880126953125,
        -0.9994374513626099,
        -1.0
      ],
      "type": "VEC4"
    },
    {
      "bufferView": 1,
      "componentType": 5126,
      "count": 479,
      "max": [
        0.9879429936408997,
        1.0
      ],
      "min": [
        0.07063999772071838,
        2.2000000171829015e-05
      ],
      "type": "VEC2"
    },
    {
      "bufferView": 0,
      "componentType": 5125,
      "count": 1428,
      "type": "SCALAR"
    },
    {
      "bufferView": 2,
      "byteOffset": 11496,
      "componentType": 5126,
      "count": 32,
      "max": [
        -1.3203860521316528,
        2.150115966796875,
        0.03439600020647049
      ],
      "min": [
        -1.9349939823150635,
        1.9907619953155518,
        -0.03439600020647049
      ],
      "type": "VEC3"
    },
    {
      "bufferView": 2,
      "byteOffset": 11880,
      "componentType": 5126,
      "count": 32,
      "max": [
        0.44718998670578003,
        0.9937581419944763,
        1.0
      ],
      "min": [
        -0.7181029319763184,
        -1.0,
        -1.0
      ],
      "type": "VEC3"
    },
    {
      "bufferView": 3,
      "byteOffset": 7664,
      "componentType": 5126,
      "count": 32,
      "max": [
        0.00014951459888834506,
        1.0,
        1.0,
        1.0
      ],
      "min": [
        -0.00012500798038672656,
        -1.0,
        -1.0,
        1.0
      ],
      "type": "VEC4"
    },
    {
      "bufferView": 1,
      "byteOffset": 3832,
      "componentType": 5126,
      "count": 32,
      "max": [
        0.9992309808731079,
        0.2548309862613678
      ],
      "min": [
        0.44149699807167053,
        0.005710000172257423
      ],
      "type": "VEC2"
    },
    {
      "bufferView": 0,
      "byteOffset": 5712,
      "componentType": 5125,
      "count": 60,
      "type": "SCALAR"
    },
    {
      "bufferView": 2,
      "byteOffset": 12264,
      "componentType": 5126,
      "count": 32,
      "max": [
        3.219444990158081,
        2.2438600063323975,
        0.03439600020647049
      ],
      "min": [
        2.6308770179748535,
        1.9907619953155518,
        -0.03439600020647049
      ],
      "type": "VEC3"
    },
    {
      "bufferView": 2,
      "byteOffset": 12648,
      "componentType": 5126,
      "count": 32,
      "max": [
        1.0,
        1.0,
        1.0
      ],
      "min": [
        -0.7312232255935669,
        -1.0,
        -1.0
      ],
      "type": "VEC3"
    },
    {
      "bufferView": 3,
      "byteOffset": 8176,
      "componentType": 5126,
      "count": 32,
      "max": [
        5.2375444283825345e-06,
        1.0,
        1.0,
        1.0
      ],
      "min": [
        -8.750089182285592e-05,
        -1.0,
        -1.0,
        1.0
      ],
      "type": "VEC4"
    },
    {
      "bufferView": 1,
      "byteOffset": 4088,
      "componentType": 5126,
      "count": 32,
      "max": [
        0.8697140216827393,
        0.19376599788665771
      ],
      "min": [
        0.4885909855365753,
        4.400000034365803e-05
      ],
      "type": "VEC2"
    },
    {
      "bufferView": 0,
      "byteOffset": 5952,
      "componentType": 5125,
      "count": 60,
      "type": "SCALAR"
    },
    {
      "bufferView": 2,
      "byteOffset": 13032,
      "componentType": 5126,
      "count": 148,
      "max": [
        -0.7520719766616821,
        0.5265730023384094,
        0.13293400406837463
      ],
      "min": [
        -1.5917489528656006,
        -0.291500985622406,
        -0.13293400406837463
      ],
      "type": "VEC3"
    },
    {
      "bufferView": 2,
      "byteOffset": 14808,
      "componentType": 5126,
      "count": 148,
      "max": [
        0.9798815846443176,
        0.9258440136909485,
        1.0
      ],
      "min": [
        -0.9999157786369324,
        -0.9943891167640686,
        -1.0
      ],
      "type": "VEC3"
    },
    {
      "bufferView": 3,
      "byteOffset": 8688,
      "componentType": 5126,
      "count": 148,
      "max": [
        0.9977872967720032,
        1.0,
        0.07626750320196152,
        1.0
      ],
      "min": [
        -0.012978998012840748,
        -1.0,
        -0.09829313308000565,
        1.0
      ],
      "type": "VEC4"
    },
    {
      "bufferView": 1,
      "byteOffset": 4344,
      "componentType": 5126,
      "count": 148,
      "max": [
        0.9489380121231079,
        0.7324709892272949
      ],
      "min": [
        0.34142500162124634,
        0.04253000020980835
      ],
      "type": "VEC2"
    },
    {
      "bufferView": 0,
      "byteOffset": 6192,
      "componentType": 5125,
      "count": 348,
      "type": "SCALAR"
    },
    {
      "bufferView": 2,
      "byteOffset": 16584,
      "componentType": 5126,
      "count": 476,
      "max": [
        -0.01860800012946129,
        0.16140100359916687,
        0.3669170141220093
      ],
      "min": [
        -3.4854609966278076,
        -2.7862019538879395,
        -0.3669170141220093
      ],
      "type": "VEC3"
    },
    {
      "bufferView": 2,
      "byteOffset": 22296,
      "componentType": 5126,
      "count": 476,
      "max": [
        0.9998704791069031,
        0.9991266131401062,
        1.0
      ],
      "min": [
        -0.9992472529411316,
        -0.9806491136550903,
        -1.0
      ],
      "type": "VEC3"
    },
    {
      "bufferView": 3,
      "byteOffset": 11056,
      "componentType": 5126,
      "count": 476,
      "max": [
        0.8419575691223145,
        0.999308168888092,
        0.9960834383964539,
        1.0
      ],
      "min": [
        -0.9999980330467224,
        -0.9970245957374573,
        -0.9998568892478943,
        1.0
      ],
      "type": "VEC4"
    },
    {
      "bufferView": 1,
      "byteOffset": 5528,
      "componentType": 5126,
      "count": 476,
      "max": [
        0.8908330202102661,
        0.915116012096405
      ],
      "min": [
        0.0,
        3.7999998312443495e-05
      ],
      "type": "VEC2"
    },
    {
      "bufferView": 0,
      "byteOffset": 7584,
      "componentType": 5125,
      "count": 1326,
      "type": "SCALAR"
    },
    {
      "bufferView": 2,
      "byteOffset": 28008,
      "componentType": 5126,
      "count": 280,
      "max": [
        -0.4987789988517761,
        1.6058160066604614,
        0.5
      ],
      "min": [
        -3.7637600898742676,
        -1.7482140064239502,
        -0.5
      ],
      "type": "VEC3"
    },
    {
      "bufferView": 2,
      "byteOffset": 31368,
      "componentType": 5126,
      "count": 280,
      "max": [
        0.998174786567688,
        0.9999528527259827,
        0.9996374845504761
      ],
      "min": [
        -0.9888539910316467,
        -0.997617781162262,
        -0.9996374845504761
      ],
      "type": "VEC3"
    },
    {
      "bufferView": 3,
      "byteOffset": 18672,
      "componentType": 5126,
      "count": 280,
      "max": [
        0.9999915361404419,
        0.972561776638031,
        0.85328209400177,
        1.0
      ],
      "min": [
        -0.8137925267219543,
        -0.7916492819786072,
        -0.9996712803840637,
        1.0
      ],
      "type": "VEC4"
    },
    {
      "bufferView": 1,
      "byteOffset": 9336,
      "componentType": 5126,
      "count": 280,
      "max": [
        0.9992570281028748,
        0.8934460282325745
      ],
      "min": [
        0.0,
        1.2999999853491317e-05
      ],
      "type": "VEC2"
    },
    {
      "bufferView": 0,
      "byteOffset": 12888,
      "componentType": 5125,
      "count": 900,
      "type": "SCALAR"
    },
    {
      "bufferView": 2,
      "byteOffset": 34728,
      "componentType": 5126,
      "count": 242,
      "max": [
        3.22023606300354,
        1.9535210132598877,
        0.43565499782562256
      ],
      "min": [
        -1.4453779458999634,
        0.7789210081100464,
        -0.43565499782562256
      ],
      "type": "VEC3"
    },
    {
      "bufferView": 2,
      "byteOffset": 37632,
      "componentType": 5126,
      "count": 242,
      "max": [
        1.0,
        1.0,
        1.0
      ],
      "min": [
        -1.0,
        -1.0,
        -1.0
      ],
      "type": "VEC3"
    },
    {
      "bufferView": 3,
      "byteOffset": 23152,
      "componentType": 5126,
      "count": 242,
      "max": [
        0.996810793876648,
        0.9581364989280701,
        0.9997035264968872,
        1.0
      ],
      "min": [
        -0.9941567182540894,
        -0.989404559135437,
        -0.9997707605361938,
        1.0
      ],
      "type": "VEC4"
    },
    {
      "bufferView": 1,
      "byteOffset": 11576,
      "componentType": 5126,
      "count": 242,
      "max": [
        0.996757984161377,
        0.875033974647522
      ],
      "min": [
        0.0,
        4.199999966658652e-05
      ],
      "type": "VEC2"
    },
    {
      "bufferView": 0,
      "byteOffset": 16488,
      "componentType": 5125,
      "count": 660,
      "type": "SCALAR"
    },
    {
      "bufferView": 2,
      "byteOffset": 40536,
      "componentType": 5126,
      "count": 1252,
      "max": [
        3.7253880500793457,
        1.5475150346755981,
        0.44330498576164246
      ],
      "min": [
        2.3565359115600586,
        0.8198959827423096,
        -0.44330498576164246
      ],
      "type": "VEC3"
    },
    {
      "bufferView": 2,
      "byteOffset": 55560,
      "componentType": 5126,
      "count": 1252,
      "max": [
        1.0,
        1.0,
        1.0
      ],
      "min": [
        -1.0,
        -1.0,
        -1.0
      ],
      "type": "VEC3"
    },
    {
      "bufferView": 3,
      "byteOffset": 27024,
      "componentType": 5126,
      "count": 1252,
      "max": [
        0.999999463558197,
        0.966748058795929,
        0.7775161266326904,
        1.0
      ],
      "min": [
        -0.9606205224990845,
        -0.9844799637794495,
        -0.9997391700744629,
        1.0
      ],
      "type": "VEC4"
    },
    {
      "bufferView": 1,
      "byteOffset": 13512,
      "componentType": 5126,
      "count": 1252,
      "max": [
        0.9114469885826111,
        0.9642159938812256
      ],
      "min": [
        0.0,
        0.0
      ],
      "type": "VEC2"
    },
    {
      "bufferView": 0,
      "byteOffset": 19128,
      "componentType": 5125,
      "count": 2892,
      "type": "SCALAR"
    },
    {
      "bufferView": 2,
      "byteOffset": 70584,
      "componentType": 5126,
      "count": 198,
      "max": [
        3.839761972427368,
        0.9886659979820251,
        0.5048779845237732
      ],
      "min": [
        2.0149459838867188,
        0.3481079936027527,
        -0.5048789978027344
      ],
      "type": "VEC3"
    },
    {
      "bufferView": 2,
      "byteOffset": 72960,
      "componentType": 5126,
      "count": 198,
      "max": [
        1.0,
        1.0,
        1.0
      ],
      "min": [
        -1.0,
        -1.0,
        -1.0
      ],
      "type": "VEC3"
    },
    {
      "bufferView": 3,
      "byteOffset": 47056,
      "componentType": 5126,
      "count": 198,
      "max": [
        0.9998193383216858,
        0.9593413472175598,
        0.7280405163764954,
        1.0
      ],
      "min": [
        -0.2823348343372345,
        -0.9593495726585388,
        -0.9924576878547668,
        1.0
      ],
      "type": "VEC4"
    },
    {
      "bufferView": 1,
      "byteOffset": 23528,
      "componentType": 5126,
      "count": 198,
      "max": [
        0.9105749726295471,
        0.9363849759101868
      ],
      "min": [
        0.0,
        2.5999999706982635e-05
      ],
      "type": "VEC2"
    },
    {
      "bufferView": 0,
      "byteOffset": 30696,
      "componentType": 5125,
      "count": 612,
      "type": "SCALAR"
    },
    {
      "bufferView": 2,
      "byteOffset": 75336,
      "componentType": 5126,
      "count": 666,
      "max": [
        4.324098110198975,
        1.6478029489517212,
        0.4020180106163025
      ],
      "min": [
        1.7773770093917847,
        0.6703889966011047,
        -0.4020180106163025
      ],
      "type": "VEC3"
    },
    {
      "bufferView": 2,
      "byteOffset": 83328,
      "componentType": 5126,
      "count": 666,
      "max": [
        1.0,
        1.0,
        1.0
      ],
      "min": [
        -1.0,
        -1.0,
        -1.0
      ],
      "type": "VEC3"
    },
    {
      "bufferView": 3,
      "byteOffset": 50224,
      "componentType": 5126,
      "count": 666,
      "max": [
        0.9999979138374329,
        0.9526369571685791,
        0.9995357990264893,
        1.0
      ],
      "min": [
        -0.9890653491020203,
        -0.9999162554740906,
        -0.9999989867210388,
        1.0
      ],
      "type": "VEC4"
    },
    {
      "bufferView": 1,
      "byteOffset": 25112,
      "componentType": 5126,
      "count": 666,
      "max": [
        0.9993280172348022,
        0.9733200073242188
      ],
      "min": [
        0.04709300026297569,
        4.999999873689376e-06
      ],
      "type": "VEC2"
    },
    {
      "bufferView": 0,
      "byteOffset": 33144,
      "componentType": 5125,
      "count": 1788,
      "type": "SCALAR"
    },
    {
      "bufferView": 2,
      "byteOffset": 91320,
      "componentType": 5126,
      "count": 661,
      "max": [
        2.2358338832855225,
        1.7354860305786133,
        0.5979530215263367
      ],
      "min": [
        -0.607820987701416,
        -1.0173170566558838,
        -0.5979530215263367
      ],
      "type": "VEC3"
    },
    {
      "bufferView": 2,
      "byteOffset": 99252,
      "componentType": 5126,
      "count": 661,
      "max": [
        1.0,
        1.0,
        1.0
      ],
      "min": [
        -1.0,
        -1.0,
        -1.0
      ],
      "type": "VEC3"
    },
    {
      "bufferView": 3,
      "byteOffset": 60880,
      "componentType": 5126,
      "count": 661,
      "max": [
        0.9997169971466064,
        0.99993497133255,
        0.9966431260108948,
        1.0
      ],
      "min": [
        -0.9997386932373047,
        -0.9988963007926941,
        -1.0,
        1.0
      ],
      "type": "VEC4"
    },
    {
      "bufferView": 1,
      "byteOffset": 30440,
      "componentType": 5126,
      "count": 661,
      "max": [
        0.8538100123405457,
        0.9556379914283752
      ],
      "min": [
        0.0,
        3.300000025774352e-05
      ],
      "type": "VEC2"
    },
    {
      "bufferView": 0,
      "byteOffset": 40296,
      "componentType": 5125,
      "count": 1920,
      "type": "SCALAR"
    },
    {
      "bufferView": 2,
      "byteOffset": 107184,
      "componentType": 5126,
      "count": 480,
      "max": [
        1.4759520292282104,
        1.082584023475647,
        0.6523759961128235
      ],
      "min": [
        0.16845500469207764,
        -0.22491399943828583,
        0.28803500533103943
      ],
      "type": "VEC3"
    },
    {
      "bufferView": 2,
      "byteOffset": 112944,
      "componentType": 5126,
      "count": 480,
      "max": [
        1.0,
        1.0,
        1.0
      ],
      "min": [
        -1.0,
        -1.0,
        -1.0
      ],
      "type": "VEC3"
    },
    {
      "bufferView": 3,
      "byteOffset": 71456,
      "componentType": 5126,
      "count": 480,
      "max": [
        0.999645471572876,
        0.9200970530509949,
        0.9994373917579651,
        1.0
      ],
      "min": [
        -0.9200963973999023,
        -0.9958764910697937,
        -0.5255509614944458,
        1.0
      ],
      "type": "VEC4"
    },
    {
      "bufferView": 1,
      "byteOffset": 35728,
      "componentType": 5126,
      "count": 480,
      "max": [
        0.9879429936408997,
        1.0
      ],
      "min": [
        0.07063999772071838,
        2.2000000171829015e-05
      ],
      "type": "VEC2"
    },
    {
      "bufferView": 0,
      "byteOffset": 47976,
      "componentType": 5125,
      "count": 1428,
      "type": "SCALAR"
    },
    {
      "bufferView": 2,
      "byteOffset": 118704,
      "componentType": 5126,
      "count": 514,
      "max": [
        3.4627840518951416,
        0.8272110223770142,
        0.6213080286979675
      ],
      "min": [
        -0.46526598930358887,
        -1.6217759847640991,
        -0.6213080286979675
      ],
      "type": "VEC3"
    },
    {
      "bufferView": 2,
      "byteOffset": 124872,
      "componentType": 5126,
      "count": 514,
      "max": [
        0.998100757598877,
        0.9999854564666748,
        1.0
      ],
      "min": [
        -0.9903628826141357,
        -0.9999189972877502,
        -1.0
      ],
      "type": "VEC3"
    },
    {
      "bufferView": 3,
      "byteOffset": 79136,
      "componentType": 5126,
      "count": 514,
      "max": [
        0.778571367263794,
        0.8734763264656067,
        0.9113777279853821,
        1.0
      ],
      "min": [
        -0.9995002746582031,
        -0.9984474182128906,
        -0.9954048991203308,
        1.0
      ],
      "type": "VEC4"
    },
    {
      "bufferView": 1,
      "byteOffset": 39568,
      "componentType": 5126,
      "count": 514,
      "max": [
        0.9988570213317871,
        0.9986780285835266
      ],
      "min": [
        0.0,
        3.199999991920777e-05
      ],
      "type": "VEC2"
    },
    {
      "bufferView": 0,
      "byteOffset": 53688,
      "componentType": 5125,
      "count": 1680,
      "type": "SCALAR"
    },
    {
      "bufferView": 2,
      "byteOffset": 131040,
      "componentType": 5126,
      "count": 1683,
      "max": [
        3.274780035018921,
        2.000221014022827,
        0.6341249942779541
      ],
      "min": [
        -3.0279970169067383,
        0.18960000574588776,
        -0.6341249942779541
      ],
      "type": "VEC3"
    },
    {
      "bufferView": 2,
      "byteOffset": 151236,
      "componentType": 5126,
      "count": 1683,
      "max": [
        1.0,
        1.0,
        1.0
      ],
      "min": [
        -1.0,
        -1.0,
        -1.0
      ],
      "type": "VEC3"
    },
    {
      "bufferView": 3,
      "byteOffset": 87360,
      "componentType": 5126,
      "count": 1683,
      "max": [
        0.9998550415039063,
        0.9917148947715759,
        0.9994553327560425,
        1.0
      ],
      "min": [
        -0.8408278226852417,
        -0.9994787573814392,
        -0.9999987483024597,
        1.0
      ],
      "type": "VEC4"
    },
    {
      "bufferView": 1,
      "byteOffset": 43680,
      "componentType": 5126,
      "count": 1683,
      "max": [
        0.9966760277748108,
        0.9816039800643921
      ],
      "min": [
        0.0,
        3.000000106112566e-06
      ],
      "type": "VEC2"
    },
    {
      "bufferView": 0,
      "byteOffset": 60408,
      "componentType": 5125,
      "count": 4674,
      "type": "SCALAR"
    }
  ],
  "asset": {
    "extras": {
      "author": "N3ON_fx (https://sketchfab.com/N3ON_fx)",
      "license": "SKETCHFAB Standard (https://sketchfab.com/licenses)",
      "source": "https://sketchfab.com/3d-models/futuristic-gun-free-58471bb980034094b5ccc3f5cf40dda5",
      "title": "Futuristic-gun FREE"
    },
    "generator": "Sketchfab-16.29.0",
    "version": "2.0"
  },
  "bufferViews": [
    {
      "buffer": 0,
      "byteLength": 79104,
      "name": "floatBufferViews",
      "target": 34963
    },
    {
      "buffer": 0,
      "byteLength": 57144,
      "byteOffset": 79104,
      "byteStride": 8,
      "name": "floatBufferViews",
      "target": 34962
    },
    {
      "buffer": 0,
      "byteLength": 171432,
      "byteOffset": 136248,
      "byteStride": 12,
      "name": "floatBufferViews",
      "target": 34962
    },
    {
      "buffer": 0,
      "byteLength": 114288,
      "byteOffset": 307680,
      "byteStride": 16,
      "name": "floatBufferViews",
      "target": 34962
    }
  ],
  "buffers": [
    {
      "byteLength": 421968,
      "uri": "scene.bin"
    }
  ],
  "extensionsUsed": [
    "KHR_materials_emissive_strength"
  ],
  "images": [
    {
      "uri": "textures/lambert1_baseColor.jpeg"
    },
    {
      "uri": "textures/lambert1_metallicRoughness.png"
    },
    {
      "uri": "textures/lambert1_emissive.jpeg"
    },
    {
      "uri": "textures/lambert1_normal.png"
    }
  ],
  "materials": [
    {
      "doubleSided": true,
      "emissiveFactor": [
        1.0,
        1.0,
        1.0
      ],
      "emissiveTexture": {
        "index": 2
      },
      "extensions": {
        "KHR_materials_emissive_strength": {
          "emissiveStrength": 10.0
        }
      },
      "name": "lambert1",
      "normalTexture": {
        "index": 3
      },
      "occlusionTexture": {
        "index": 1
      },
      "pbrMetallicRoughness": {
        "baseColorTexture": {
          "index": 0
        },
        "metallicRoughnessTexture": {
          "index": 1
        }
      }
    }
  ],
  "meshes": [
    {
      "name": "defaultMaterial",
      "primitives": [
        {
          "attributes": {
            "NORMAL": 1,
            "POSITION": 0,
            "TANGENT": 2,
            "TEXCOORD_0": 3
          },
          "indices": 4,
          "material": 0,
          "mode": 4
        }
      ]
    },
    {
      "name": "defaultMaterial",
      "primitives": [
        {
          "attributes": {
            "NORMAL": 6,
            "POSITION": 5,
            "TANGENT": 7,
            "TEXCOORD_0": 8
          },
          "indices": 9,
          "material": 0,
          "mode": 4
        }
      ]
    },
    {
      "name": "defaultMaterial",
      "primitives": [
        {
          "attributes": {
            "NORMAL": 11,
            "POSITION": 10,
            "TANGENT": 12,
            "TEXCOORD_0": 13
          },
          "indices": 14,
          "material": 0,
          "mode": 4
        }
      ]
    },
    {
      "name": "defaultMaterial",
      "primitives": [
        {
          "attributes": {
            "NORMAL": 16,
            "POSITION": 15,
            "TANGENT": 17,
            "TEXCOORD_0": 18
          },
          "indices": 19,
          "material": 0,
          "mode": 4
        }
      ]
    },
    {
      "name": "defaultMaterial",
      "primitives": [
        {
          "attributes": {
            "NORMAL": 21,
            "POSITION": 20,
            "TANGENT": 22,
            "TEXCOORD_0": 23
          },
          "indices": 24,
          "material": 0,
          "mode": 4
        }
      ]
    },
    {
      "name": "defaultMaterial",
      "primitives": [
        {
          "attributes": {
            "NORMAL": 26,
            "POSITION": 25,
            "TANGENT": 27,
            "TEXCOORD_0": 28
          },
          "indices": 29,
          "material": 0,
          "mode": 4
        }
      ]
    },
    {
      "name": "defaultMaterial",
      "primitives": [
        {
          "attributes": {
            "NORMAL": 31,
            "POSITION": 30,
            "TANGENT": 32,
            "TEXCOORD_0": 33
          },
          "indices": 34,
          "material": 0,
          "mode": 4
        }
      ]
    },
    {
      "name": "defaultMaterial",
      "primitives": [
        {
          "attributes": {
            "NORMAL": 36,
            "POSITION": 35,
            "TANGENT": 37,
            "TEXCOORD_0": 38
          },
          "indices": 39,
          "material": 0,
          "mode": 4
        }
      ]
    },
    {
      "name": "defaultMaterial",
      "primitives": [
        {
          "attributes": {
            "NORMAL": 41,
            "POSITION": 40,
            "TANGENT": 42,
            "TEXCOORD_0": 43
          },
          "indices": 44,
          "material": 0,
          "mode": 4
        }
      ]
    },
    {
      "name": "defaultMaterial",
      "primitives": [
        {
          "attributes": {
            "NORMAL": 46,
            "POSITION": 45,
            "TANGENT": 47,
            "TEXCOORD_0": 48
          },
          "indices": 49,
          "material": 0,
          "mode": 4
        }
      ]
    },
    {
      "name": "defaultMaterial",
      "primitives": [
        {
          "attributes": {
            "NORMAL": 51,
            "POSITION": 50,
            "TANGENT": 52,
            "TEXCOORD_0": 53
          },
          "indices": 54,
          "material": 0,
          "mode": 4
        }
      ]
    },
    {
      "name": "defaultMaterial",
      "primitives": [
        {
          "attributes": {
            "NORMAL": 56,
            "POSITION": 55,
            "TANGENT": 57,
            "TEXCOORD_0": 58
          },
          "indices": 59,
          "material": 0,
          "mode": 4
        }
      ]
    },
    {
      "name": "defaultMaterial",
      "primitives": [
        {
          "attributes": {
            "NORMAL": 61,
            "POSITION": 60,
            "TANGENT": 62,
            "TEXCOORD_0": 63
          },
          "indices": 64,
          "material": 0,
          "mode": 4
        }
      ]
    },
    {
      "name": "defaultMaterial",
      "primitives": [
        {
          "attributes": {
            "NORMAL": 66,
            "POSITION": 65,
            "TANGENT": 67,
            "TEXCOORD_0": 68
          },
          "indices": 69,
          "material": 0,
          "mode": 4
        }
      ]
    }
  ],
  "nodes": [
    {
      "children": [
        1
      ],
      "matrix": [
        1.0,
        0.0,
        0.0,
        0.0,
        0.0,
        2.220446049250313e-16,
        -1.0,
        0.0,
        0.0,
        1.0,
        2.220446049250313e-16,
        0.0,
        0.0,
        0.0,
        0.0,
        1.0
      ],
      "name": "Sketchfab_model"
    },
    {
      "children": [
        2,
        4,
        6,
        8,
        10,
        12,
        14,
        16,
        18,
        20,
        22,
        24,
        26,
        28
      ],
      "matrix": [
        1.0,
        0.0,
        0.0,
        0.0,
        0.0,
        -4.371139006309477e-08,
        0.999999999999999,
        0.0,
        0.0,
        -0.999999999999999,
        -4.371139006309477e-08,
        0.0,
        0.0,
        0.0,
        0.0,
        1.0
      ],
      "name": "Collada visual scene group"
    },
    {
      "children": [
        3
      ],
      "name": "pCylinder10"
    },
    {
      "mesh": 0,
      "name": "defaultMaterial"
    },
    {
      "children": [
        5
      ],
      "name": "pCube7"
    },
    {
      "mesh": 1,
      "name": "defaultMaterial"
    },
    {
      "children": [
        7
      ],
      "name": "pCube6"
    },
    {
      "mesh": 2,
      "name": "defaultMaterial"
    },
    {
      "children": [
        9
      ],
      "name": "pCube5"
    },
    {
      "mesh": 3,
      "name": "defaultMaterial"
    },
    {
      "children": [
        11
      ],
      "name": "pCube4"
    },
    {
      "mesh": 4,
      "name": "defaultMaterial"
    },
    {
      "children": [
        13
      ],
      "name": "pCube3"
    },
    {
      "mesh": 5,
      "name": "defaultMaterial"
    },
    {
      "children": [
        15
      ],
      "name": "pCube2"
    },
    {
      "mesh": 6,
      "name": "defaultMaterial"
    },
    {
      "children": [
        17
      ],
      "name": "pCylinder9"
    },
    {
      "mesh": 7,
      "name": "defaultMaterial"
    },
    {
      "children": [
        19
      ],
      "name": "pCylinder7"
    },
    {
      "mesh": 8,
      "name": "defaultMaterial"
    },
    {
      "children": [
        21
      ],
      "name": "pCylinder6"
    },
    {
      "mesh": 9,
      "name": "defaultMaterial"
    },
    {
      "children": [
        23
      ],
      "name": "pCylinder3"
    },
    {
      "mesh": 10,
      "name": "defaultMaterial"
    },
    {
      "children": [
        25
      ],
      "name": "pCylinder2"
    },
    {
      "mesh": 11,
      "name": "defaultMaterial"
    },
    {
      "children": [
        27
      ],
      "name": "pCube1"
    },
    {
      "mesh": 12,
      "name": "defaultMaterial"
    },
    {
      "children": [
        29
      ],
      "name": "pCylinder1"
    },
    {
      "mesh": 13,
      "name": "defaultMaterial"
    }
  ],
  "samplers": [
    {
      "magFilter": 9729,
      "minFilter": 9987,
      "wrapS": 10497,
      "wrapT": 10497
    }
  ],
  "scene": 0,
  "scenes": [
    {
      "name": "Sketchfab_Scene",
      "nodes": [
        0
      ]
    }
  ],
  "textures": [
    {
      "sampler": 0,
      "source": 0
    },
    {
      "sampler": 0,
      "source": 1
    },
    {
      "sampler": 0,
      "source": 2
    },
    {
      "sampler": 0,
      "source": 3
    }
  ]
}
